<svg width="400" height="400" xmlns="http://www.w3.org/2000/svg" version="1.1">
<circle cx="200.000000" cy="200.000000" r="180.000000" fill="white" stroke="black" />
<line x1="200.000000" y1="20.000000" x2="200.000000" y2="40.000000" stroke="black" stroke-width="3" />
<line x1="218.815123" y1="20.986059" x2="217.769839" y2="30.931278" stroke="black" stroke-width="2" />
<line x1="237.424104" y1="23.933432" x2="235.344987" y2="33.714908" stroke="black" stroke-width="2" />
<line x1="255.623059" y1="28.809827" x2="252.532889" y2="38.320392" stroke="black" stroke-width="2" />
<line x1="273.212596" y1="35.561818" x2="269.145229" y2="44.697272" stroke="black" stroke-width="2" />
<line x1="290.000000" y1="44.115427" x2="280.000000" y2="61.435935" stroke="black" stroke-width="3" />
<line x1="305.801345" y1="54.376941" x2="299.923493" y2="62.467111" stroke="black" stroke-width="2" />
<line x1="320.443509" y1="66.233931" x2="313.752203" y2="73.665380" stroke="black" stroke-width="2" />
<line x1="333.766069" y1="79.556491" x2="326.334620" y2="86.247797" stroke="black" stroke-width="2" />
<line x1="345.623059" y1="94.198655" x2="337.532889" y2="100.076507" stroke="black" stroke-width="2" />
<line x1="355.884573" y1="110.000000" x2="338.564065" y2="120.000000" stroke="black" stroke-width="3" />
<line x1="364.438182" y1="126.787404" x2="355.302728" y2="130.854771" stroke="black" stroke-width="2" />
<line x1="371.190173" y1="144.376941" x2="361.679608" y2="147.467111" stroke="black" stroke-width="2" />
<line x1="376.066568" y1="162.575896" x2="366.285092" y2="164.655013" stroke="black" stroke-width="2" />
<line x1="379.013941" y1="181.184877" x2="369.068722" y2="182.230161" stroke="black" stroke-width="2" />
<line x1="380.000000" y1="200.000000" x2="360.000000" y2="200.000000" stroke="black" stroke-width="3" />
<line x1="379.013941" y1="218.815123" x2="369.068722" y2="217.769839" stroke="black" stroke-width="2" />
<line x1="376.066568" y1="237.424104" x2="366.285092" y2="235.344987" stroke="black" stroke-width="2" />
<line x1="371.190173" y1="255.623059" x2="361.679608" y2="252.532889" stroke="black" stroke-width="2" />
<line x1="364.438182" y1="273.212596" x2="355.302728" y2="269.145229" stroke="black" stroke-width="2" />
<line x1="355.884573" y1="290.000000" x2="338.564065" y2="280.000000" stroke="black" stroke-width="3" />
<line x1="345.623059" y1="305.801345" x2="337.532889" y2="299.923493" stroke="black" stroke-width="2" />
<line x1="333.766069" y1="320.443509" x2="326.334620" y2="313.752203" stroke="black" stroke-width="2" />
<line x1="320.443509" y1="333.766069" x2="313.752203" y2="326.334620" stroke="black" stroke-width="2" />
<line x1="305.801345" y1="345.623059" x2="299.923493" y2="337.532889" stroke="black" stroke-width="2" />
<line x1="290.000000" y1="355.884573" x2="280.000000" y2="338.564065" stroke="black" stroke-width="3" />
<line x1="273.212596" y1="364.438182" x2="269.145229" y2="355.302728" stroke="black" stroke-width="2" />
<line x1="255.623059" y1="371.190173" x2="252.532889" y2="361.679608" stroke="black" stroke-width="2" />
<line x1="237.424104" y1="376.066568" x2="235.344987" y2="366.285092" stroke="black" stroke-width="2" />
<line x1="218.815123" y1="379.013941" x2="217.769839" y2="369.068722" stroke="black" stroke-width="2" />
<line x1="200.000000" y1="380.000000" x2="200.000000" y2="360.000000" stroke="black" stroke-width="3" />
<line x1="181.184877" y1="379.013941" x2="182.230161" y2="369.068722" stroke="black" stroke-width="2" />
<line x1="162.575896" y1="376.066568" x2="164.655013" y2="366.285092" stroke="black" stroke-width="2" />
<line x1="144.376941" y1="371.190173" x2="147.467111" y2="361.679608" stroke="black" stroke-width="2" />
<line x1="126.787404" y1="364.438182" x2="130.854771" y2="355.302728" stroke="black" stroke-width="2" />
<line x1="110.000000" y1="355.884573" x2="120.000000" y2="338.564065" stroke="black" stroke-width="3" />
<line x1="94.198655" y1="345.623059" x2="100.076507" y2="337.532889" stroke="black" stroke-width="2" />
<line x1="79.556491" y1="333.766069" x2="86.247797" y2="326.334620" stroke="black" stroke-width="2" />
<line x1="66.233931" y1="320.443509" x2="73.665380" y2="313.752203" stroke="black" stroke-width="2" />
<line x1="54.376941" y1="305.801345" x2="62.467111" y2="299.923493" stroke="black" stroke-width="2" />
<line x1="44.115427" y1="290.000000" x2="61.435935" y2="280.000000" stroke="black" stroke-width="3" />
<line x1="35.561818" y1="273.212596" x2="44.697272" y2="269.145229" stroke="black" stroke-width="2" />
<line x1="28.809827" y1="255.623059" x2="38.320392" y2="252.532889" stroke="black" stroke-width="2" />
<line x1="23.933432" y1="237.424104" x2="33.714908" y2="235.344987" stroke="black" stroke-width="2" />
<line x1="20.986059" y1="218.815123" x2="30.931278" y2="217.769839" stroke="black" stroke-width="2" />
<line x1="20.000000" y1="200.000000" x2="40.000000" y2="200.000000" stroke="black" stroke-width="3" />
<line x1="20.986059" y1="181.184877" x2="30.931278" y2="182.230161" stroke="black" stroke-width="2" />
<line x1="23.933432" y1="162.575896" x2="33.714908" y2="164.655013" stroke="black" stroke-width="2" />
<line x1="28.809827" y1="144.376941" x2="38.320392" y2="147.467111" stroke="black" stroke-width="2" />
<line x1="35.561818" y1="126.787404" x2="44.697272" y2="130.854771" stroke="black" stroke-width="2" />
<line x1="44.115427" y1="110.000000" x2="61.435935" y2="120.000000" stroke="black" stroke-width="3" />
<line x1="54.376941" y1="94.198655" x2="62.467111" y2="100.076507" stroke="black" stroke-width="2" />
<line x1="66.233931" y1="79.556491" x2="73.665380" y2="86.247797" stroke="black" stroke-width="2" />
<line x1="79.556491" y1="66.233931" x2="86.247797" y2="73.665380" stroke="black" stroke-width="2" />
<line x1="94.198655" y1="54.376941" x2="100.076507" y2="62.467111" stroke="black" stroke-width="2" />
<line x1="110.000000" y1="44.115427" x2="120.000000" y2="61.435935" stroke="black" stroke-width="3" />
<line x1="126.787404" y1="35.561818" x2="130.854771" y2="44.697272" stroke="black" stroke-width="2" />
<line x1="144.376941" y1="28.809827" x2="147.467111" y2="38.320392" stroke="black" stroke-width="2" />
<line x1="162.575896" y1="23.933432" x2="164.655013" y2="33.714908" stroke="black" stroke-width="2" />
<line x1="181.184877" y1="20.986059" x2="182.230161" y2="30.931278" stroke="black" stroke-width="2" />
<line x1="200.000000" y1="20.000000" x2="200.000000" y2="40.000000" stroke="black" stroke-width="3" />
<line x1="120.438248" y1="191.637723" x2="195.027391" y2="199.477358" stroke="black" stroke-width="5" />
<line x1="316.684390" y1="171.986556" x2="204.861850" y2="198.832773" stroke="black" stroke-width="3" />
<line x1="50.000000" y1="200.000000" x2="195.000000" y2="200.000000" stroke="black" stroke-width="1" />
<circle cx="200.000000" cy="200.000000" r="10" fill="black" stroke="black" />
</svg>